<svg width="60" height="16" viewBox="0 0 60 16" fill="none" xmlns="http://www.w3.org/2000/svg">
<path fill-rule="evenodd" clip-rule="evenodd" d="M24.4044 16L8.94912 16C9.02151 11.794 12.4536 8.40679 16.6768 8.40679C20.9 8.40679 24.332 11.794 24.4044 16Z" fill="#D9D9D9" fill-opacity="0.2"/>
<rect x="16.2712" width="1.82301" height="7.32203" rx="0.911503" fill="#D9D9D9" fill-opacity="0.2"/>
<rect y="16" width="1.82301" height="7.32203" rx="0.911503" transform="rotate(-90 0 16)" fill="#D9D9D9" fill-opacity="0.2"/>
<rect width="1.82301" height="7.32203" rx="0.911503" transform="matrix(0 -1 -1 0 33.6055 16)" fill="#D9D9D9" fill-opacity="0.2"/>
<rect x="4.33899" y="5.10608" width="1.82301" height="7.32203" rx="0.911503" transform="rotate(-45 4.33899 5.10608)" fill="#D9D9D9" fill-opacity="0.2"/>
<rect width="1.82301" height="7.32203" rx="0.911503" transform="matrix(-0.707107 -0.707107 -0.707107 0.707107 29.2665 5.10608)" fill="#D9D9D9" fill-opacity="0.2"/>
<path fill-rule="evenodd" clip-rule="evenodd" d="M59.8352 12.5358C59.1133 12.7448 58.3502 12.8569 57.561 12.8569C53.054 12.8569 49.4004 9.20325 49.4004 4.6963C49.4004 2.94796 49.9502 1.32803 50.8864 -2.20942e-05C47.486 0.984674 45 4.12174 45 7.83945C45 12.3464 48.6536 16 53.1606 16C55.9192 16 58.3581 14.6312 59.8352 12.5358Z" fill="#D9D9D9"/>
</svg>
