<svg width="34" height="42" viewBox="0 0 34 42" fill="none" xmlns="http://www.w3.org/2000/svg">
<path fill-rule="evenodd" clip-rule="evenodd" d="M24.4044 16L8.94912 16C9.02151 11.794 12.4536 8.40679 16.6768 8.40679C20.9 8.40679 24.332 11.794 24.4044 16Z" fill="#F9D20A"/>
<rect x="16.2712" width="1.82301" height="7.32203" rx="0.911503" fill="#F9D20A"/>
<rect y="16" width="1.82301" height="7.32203" rx="0.911503" transform="rotate(-90 0 16)" fill="#F9D20A"/>
<rect width="1.82301" height="7.32203" rx="0.911503" transform="matrix(0 -1 -1 0 33.6055 16)" fill="#F9D20A"/>
<rect x="4.33899" y="5.10608" width="1.82301" height="7.32203" rx="0.911503" transform="rotate(-45 4.33899 5.10608)" fill="#F9D20A"/>
<rect width="1.82301" height="7.32203" rx="0.911503" transform="matrix(-0.707107 -0.707107 -0.707107 0.707107 29.2665 5.10608)" fill="#F9D20A"/>
<path fill-rule="evenodd" clip-rule="evenodd" d="M24.8352 38.5358C24.1133 38.7448 23.3502 38.8569 22.561 38.8569C18.054 38.8569 14.4004 35.2032 14.4004 30.6963C14.4004 28.948 14.9502 27.328 15.8864 26C12.486 26.9847 10 30.1217 10 33.8394C10 38.3464 13.6536 42 18.1606 42C20.9192 42 23.3581 40.6312 24.8352 38.5358Z" fill="#8F93FF" fill-opacity="0.4"/>
</svg>
